<svg width="45" height="40" viewBox="0 0 45 40" fill="none" xmlns="http://www.w3.org/2000/svg">
<g clip-path="url(#clip0_526_46)">
<path d="M18.7352 18.7647L18.7353 18.7647C19.419 19.4484 19.419 20.5517 18.7353 21.2353L18.7353 21.2354L3.73764 36.2353C3.05396 36.919 1.94609 36.9189 1.2626 36.2354C0.579132 35.5517 0.579132 34.4483 1.2626 33.7646L1.26263 33.7646L14.4914 20.5303L15.0214 20L14.4913 19.4698L1.2626 6.23777C1.2626 6.23776 1.26259 6.23776 1.26258 6.23775C0.579218 5.55414 0.579139 4.44628 1.26235 3.76258C1.26238 3.76255 1.26241 3.76251 1.26244 3.76248C1.2625 3.76243 1.26255 3.76238 1.2626 3.76232C1.94613 3.07952 3.05411 3.07951 3.73777 3.76254C3.7378 3.76257 3.73782 3.7626 3.73785 3.76262L18.7352 18.7647ZM42.5 33.25C43.4686 33.25 44.25 34.0314 44.25 35C44.25 35.9686 43.4686 36.75 42.5 36.75H20C19.0314 36.75 18.25 35.9686 18.25 35C18.25 34.0314 19.0314 33.25 20 33.25H42.5Z" stroke="#3294F8" stroke-width="1.5"/>
</g>
<defs>
<clipPath id="clip0_526_46">
<rect width="45" height="40" fill="white"/>
</clipPath>
</defs>
</svg>
